<svg xmlns="http://www.w3.org/2000/svg" width="777.412" height="478" viewBox="0 0 777.412 478"><defs><style>.a{opacity:0.6;}.b{fill:#dadaf7;}.c{fill:#c9c9f2;}.d{fill:#aea0aa;}.e{fill:#404041;}.f{fill:#fba19e;}.g{fill:#43b02a;}.h{fill:#b51c27;}.i{fill:#48545d;}.j{fill:#949396;}.k{fill:#fff;}.l{fill:#9e6032;}.m{fill:#b06f36;}.n{fill:#ea8383;}.o,.w{fill:#ff8200;}.p{fill:#c1c1c0;}.q{fill:#ed7a26;}.r{fill:#ed7a03;}.s{fill:#a2a2a2;}.t{fill:#252526;}.u{fill:#2d2d2f;}.v{fill:#999;}.w{mix-blend-mode:multiply;}.ba,.w{isolation:isolate;}.ba,.x{fill:#f2f9fa;}.y{fill:#8cc63f;}.z{fill:#fcfeea;}.aa{fill:#303233;}.ab{fill:#3c3e40;}.ac{fill:#454648;}.ad{fill:#f1ea27;}.ae{fill:#aaa7a8;}.af{fill:#22b573;}.ag{fill:#006837;}.ah{fill:#009245;}.ai{fill:#333;}.aj{fill:#60a249;}.ak{fill:#17682f;}.al{fill:#8de1ff;}.am{fill:#0071bc;}.an{fill:#cf6b27;}.ao{fill:#ef904f;}.ap{fill:#eb8f55;}.aq{fill:#f09151;}.ar{fill:#f1914e;}.as{fill:#ee8f50;}.at{fill:#83c9e6;}.au{fill:#a6dcf6;}.av{fill:#77bed2;}.aw{fill:#82c7e3;}.ax{fill:#a6dff9;}.ay{fill:#c4c7cc;}.az{fill:#f4891f;}.ba{mix-blend-mode:soft-light;}.bb,.bd,.be,.bf{fill:none;stroke-miterlimit:10;}.bb,.bd{stroke:#000;}.bb{stroke-width:0.339px;}.bc{fill:#3a7c3a;}.bd{stroke-width:0.203px;}.be,.bf{stroke:#006837;}.be{stroke-width:0.767px;}.bf{stroke-width:0.678px;}.bg{fill:#d6202d;}.bh{fill:#a5a5a8;}.bi{fill:#383e53;}.bj{fill:#bbd7e5;}.bk{fill:#ccc;}.bl{fill:#4d4d51;}.bm{fill:#b3b3b3;}.bn{fill:#483f37;}.bo{fill:#383f54;}.bp{fill:#282d3d;}.bq{fill:#754c24;}.br{fill:#dd491b;}</style></defs><g transform="translate(-35.33 -119.015)"><g class="a" transform="translate(35.33 119.015)"><path class="b" d="M758.371,573.476H47.6s50.023-22.359,117.189-78.141S38.712,429.823,60.924,343.748,213.371,317.5,268.2,255.7s24.173-75,57.046-110.687c50.705-55.042,167.174-17.334,167.992,63.016S564.3,346.516,647.016,313.972c114.2-44.929,155.779,89.237,111.355,165.866C731.624,525.979,758.371,573.476,758.371,573.476Z" transform="translate(-25.384 -119.015)"/><ellipse class="c" cx="388.706" cy="25.179" rx="388.706" ry="25.179" transform="translate(0 427.641)"/><path class="b" d="M319.655,176.059c-31.476,49.425,33.234,93.438,82.188,78.574s38.923-41.708,74.464-37.579,45.451-24.95,21.245-45.21-79.275-37.969-101.349-9.863S333.3,154.628,319.655,176.059Z" transform="translate(188.445 -95.997)"/><path class="d" d="M336.627,268.921a4.349,4.349,0,0,1-4.246,3.54,5.615,5.615,0,0,1-2.606-.708l4.927-3.417A10.457,10.457,0,0,0,336.627,268.921Z" transform="translate(203.38 2.041)"/></g><g transform="translate(97.256 144.759)"><g transform="translate(203.91)"><g transform="translate(0 69.649)"><path class="e" d="M202.005,235.893s-5.144,3.009-5.144,17.85v17.852h11.663v-35.7Z" transform="translate(-170.211 -119.654)"/><path class="f" d="M236.967,191.475s2,6.618,2.607,10.229,5.014,18.051,5.014,18.051,22.062,21.06,31.689,31.088a52.346,52.346,0,0,0,20.057,13.238l7.621,7.824s-18.451,2.611-22.464,0-11.031-14.042-11.031-14.042-29.886-22.464-34.5-27.478-8.624-14.44-8.624-14.44V193.28Z" transform="translate(-145.502 -155.664)"/><path class="g" d="M198.763,179.028a37.55,37.55,0,0,1,29.484-6.62s21.777-2.631,32.841,6.222c7.735,6.191,12.492,26.272,14.093,34.7h-6.223s-2.081,10.433-3.79,23c-.4,2.96-.782,6.041-1.106,9.122-.987,9.374-1.494,18.833-.614,25.343,2.406,17.75-2.359,17.149-2.359,17.149H212.9s.59-11.529.842-23.058c.109-5.38.145-10.759.013-14.971-.121-3.826-.386-6.691-.855-7.7-2.106-4.514-7.822-24.37-7.822-24.37l-1.517,6.318s-.192-.143-.565-.384c-2.057-1.336-9.446-5.6-18.064-3.888-.505.1-1.01.217-1.516.36C183.419,220.243,184.321,189.557,198.763,179.028Z" transform="translate(-181.109 -171.698)"/><path class="h" d="M195.382,210.805s3.911-16.242,0-30.434c0,0,4.051,8.492,2.678,27.637l5.445,18.142h-3.489Z" transform="translate(-171.41 -164.666)"/><path class="i" d="M236.72,172.993s21.187,34.166,24.553,40.258-6.52,17.7-7.522,27.048,2.106,33.123,5.115,52.98,3.1,27.076,3.1,27.076H205.616l2.106-63.48L196.861,226.8s12.264-3.018,12.465-16.557-7.88-37.572-7.88-37.572l5.378-.88,14.6,37.55,28.761-.6L233.47,172.477Z" transform="translate(-170.211 -171.624)"/><path class="j" d="M222.913,235.437a2.217,2.217,0,0,1-2.187-2.588c1.3-7.674,5.2-30.047,7.187-34.518,1.791-4.031,13.024-2.616,18.654-1.631a3.228,3.228,0,0,1,2.624,3.772l-1.441,7.764a3.229,3.229,0,0,1-3.721,2.593l-7.985-1.372L226.847,234a2.219,2.219,0,0,1-2.077,1.44Z" transform="translate(-150.89 -152.292)"/><path class="f" d="M182.143,234.048c0,8.027,4.621,13.636,21.468,11.829a66.457,66.457,0,0,0,11.168-2.394c16.15-4.717,34.959-14.249,34.959-14.249s10.024-.2,13.238-2.323a5.9,5.9,0,0,0,2.118-2.863c1.01-2.492,1.166-5.477,2.417-6.379,1.842-1.311,3.888-6.281,1.085-3.924a7.936,7.936,0,0,1-2.4,1.181c-4.344,1.479-11.853,2.07-11.853,2.07a6.546,6.546,0,0,1,1.2-3.25c1.01-1.057,2.406-6.978,0-6.173s-7.918,13.238-7.918,13.238c-10.205,4.717-23.106,6.787-32.841,7.7-8.364.795-14.393.722-14.393.722l3.634-26.86c-2.057-1.336-9.446-5.6-18.064-3.888C184.767,207.488,182.143,227.863,182.143,234.048Z" transform="translate(-182.143 -150.302)"/><g transform="translate(89.443 43.813)"><rect class="k" width="14.312" height="1.481" transform="translate(0 14.082) rotate(-79.713)"/></g></g><g transform="translate(23.918)"><path class="l" d="M217.392,144.2c.311-9.365-11.552-14.985-18.732-7.493s-1.249,18.419,4.371,18.107S217.392,144.2,217.392,144.2Z" transform="translate(-195.352 -133.233)"/><path class="m" d="M242.267,172.629s10.654-5.327,7.1-18.772-21.057-23.847-36.785-16.237-17.251,20.041-13.191,31.457Z" transform="translate(-193.626 -131.763)"/><path class="f" d="M203.745,160.9v20.858s6.379,17.714,20.457,13.841c11.484-3.16-2.205-14.04-2.205-14.04l-.4-11.031Z" transform="translate(-188.548 -110.8)"/><path class="n" d="M203.745,163.231s2.406,15.641,18.252,16.443l-.2-7.02Z" transform="translate(-188.548 -108.913)"/><path class="f" d="M245.493,159.3s-4.559,27.651-18.931,29.448S206.3,169.688,206.3,169.688s-6.606,1.141-8.557-4.424-.038-9.1,5.119-8.016c0,0,8.559-3.111,7.922-10.721,0,0,4.847,4.887,14.14,3.882S240.8,153.132,245.493,159.3Z" transform="translate(-194.024 -122.455)"/></g></g><g transform="translate(0 78.872)"><g transform="translate(32.743 109.529)"><g transform="translate(0 0)"><rect class="o" width="406.122" height="155.599" transform="translate(417.602 199.505) rotate(180)"/><rect class="o" width="428.828" height="31.931" transform="translate(428.828 43.906) rotate(180)"/><rect class="p" width="428.828" height="11.974" transform="translate(428.828 11.974) rotate(180)"/><rect class="q" width="74.585" height="155.599" transform="translate(86.065 199.505) rotate(180)"/><rect class="r" width="82.323" height="31.931" transform="translate(82.323 43.906) rotate(180)"/><rect class="s" width="82.323" height="11.974" transform="translate(82.323 11.974) rotate(180)"/><rect class="t" width="82.42" height="23.017" transform="translate(93.9 222.522) rotate(180)"/><rect class="u" width="317.817" height="23.017" transform="translate(410.118 222.522) rotate(180)"/></g><g transform="translate(141.937 73.732)"><path class="v" d="M178.459,282v5.034a2.218,2.218,0,0,1-2.209,2.209h-6.844A4.527,4.527,0,0,1,173.027,282Z" transform="translate(-163.973 -274.757)"/><path class="w" d="M333.775,312.366v33.426a30.37,30.37,0,0,1-30.366,30.366H172.621a4.53,4.53,0,0,1-3.2-1.322,3.688,3.688,0,0,1-.416-.489h6.844a2.218,2.218,0,0,0,2.209-2.209V367.1H303.409a21.313,21.313,0,0,0,21.312-21.312V312.366a21.313,21.313,0,0,0-21.312-21.312H172.621a4.53,4.53,0,0,1-3.2-1.322,3.691,3.691,0,0,1-.416-.489h6.844a2.218,2.218,0,0,0,2.209-2.209V282H303.409A30.37,30.37,0,0,1,333.775,312.366Z" transform="translate(-163.568 -274.757)"/><path class="p" d="M180.486,280.209v5.034h-5.432a4.527,4.527,0,0,0-3.621,7.243h-3.223A2.218,2.218,0,0,1,166,290.277V280.209A2.218,2.218,0,0,1,168.209,278h10.068A2.218,2.218,0,0,1,180.486,280.209Z" transform="translate(-166 -278)"/><path class="v" d="M178.459,329v5.034a2.218,2.218,0,0,1-2.209,2.209h-6.844A4.527,4.527,0,0,1,173.027,329Z" transform="translate(-163.973 -236.654)"/><path class="p" d="M180.486,327.209v5.034h-5.432a4.527,4.527,0,0,0-3.621,7.243h-3.223A2.218,2.218,0,0,1,166,337.277V327.209A2.218,2.218,0,0,1,168.209,325h10.068A2.218,2.218,0,0,1,180.486,327.209Z" transform="translate(-166 -239.897)"/><path class="x" d="M303.313,279.5H172.527A4.526,4.526,0,0,0,168,284.027h0a4.526,4.526,0,0,0,4.527,4.527H303.313a21.314,21.314,0,0,1,21.314,21.314V343.29A21.314,21.314,0,0,1,303.313,364.6H172.527A4.526,4.526,0,0,0,168,369.13h0a4.526,4.526,0,0,0,4.527,4.527H303.313A30.366,30.366,0,0,0,333.68,343.29V309.867A30.366,30.366,0,0,0,303.313,279.5Z" transform="translate(-164.379 -276.784)"/><circle class="v" cx="1.811" cy="1.811" r="1.811" transform="translate(7.243 90.536)"/><circle class="v" cx="1.811" cy="1.811" r="1.811" transform="translate(7.243 5.432)"/></g></g><g transform="translate(299.646 40.473)"><g transform="translate(26.173 6.594)"><rect class="y" width="10.732" height="28.543" transform="translate(9.131 3.44) rotate(18.657)"/><rect class="z" width="12.656" height="16.437" transform="matrix(0.947, 0.32, -0.32, 0.947, 5.641, 10.769)"/><rect class="f" width="10.732" height="13.939" transform="translate(6.153 12.261) rotate(18.657)"/><rect class="k" width="18.756" height="2.276" transform="matrix(0.947, 0.32, -0.32, 0.947, 6.058, 0)"/></g><g transform="translate(56.105)"><rect class="aa" width="6.984" height="13.968" transform="translate(20.952 16.296)"/><rect class="ab" width="6.984" height="13.968" transform="translate(23.28 16.296)"/><path class="ab" d="M2.707,0h38.82a2.706,2.706,0,0,1,2.706,2.706V13.59A2.707,2.707,0,0,1,41.527,16.3H2.707A2.707,2.707,0,0,1,0,13.59V2.707A2.707,2.707,0,0,1,2.707,0Z"/><rect class="ac" width="44.233" height="16.296" rx="2.707" transform="translate(4.656)"/><rect class="ad" width="5.432" height="9.054" transform="translate(10.864 3.621)"/><rect class="ad" width="5.432" height="9.054" transform="translate(19.918 3.363)"/><rect class="ad" width="5.432" height="9.054" transform="translate(28.971 3.363)"/><rect class="ad" width="5.432" height="9.054" transform="translate(38.025 3.363)"/></g><g transform="translate(0 27.146)"><path class="aa" d="M265.948,220.2H249.473L235.015,243.38v7.75h30.933Z" transform="translate(-235.015 -209.22)"/><rect class="ab" width="100.284" height="30.933" transform="translate(131.218 41.91) rotate(180)"/><path class="v" d="M259.475,225.111H243l7.243-10.976h9.232Z" transform="translate(-228.542 -214.135)"/><rect class="ae" width="100.284" height="10.976" transform="translate(131.218 10.976) rotate(180)"/></g></g><g transform="translate(105.625)"><rect class="ab" width="96.792" height="70.349" rx="4.878" transform="translate(96.792 70.349) rotate(180)"/><rect class="ac" width="93.286" height="70.349" rx="4.789" transform="translate(96.792 70.349) rotate(180)"/><path class="aa" d="M146.936,205.309h33.3l12.348,57.626H159.541Z" transform="translate(-112.401 -153.671)"/><path class="ab" d="M148.8,205.309h33.3l12.348,57.626H161.4Z" transform="translate(-110.891 -153.671)"/><rect class="aa" width="25.783" height="3.566" transform="translate(49.731 109.265) rotate(180)"/></g><g transform="translate(0 188.91)"><path class="af" d="M84.279,353.845,72.925,300.781H195.836L184.73,353.845Z" transform="translate(-66.777 -265.181)"/><rect class="ag" width="135.208" height="14.068" transform="translate(0 21.532)"/><rect class="ah" width="135.208" height="9.492" transform="translate(0 21.532)"/><g transform="translate(27.004 44.732)"><rect class="ag" width="2.221" height="38.749"/><rect class="ag" width="2.221" height="38.749" transform="translate(9.872)"/><rect class="ag" width="2.221" height="38.749" transform="translate(19.745)"/><rect class="ag" width="2.221" height="38.749" transform="translate(29.617)"/><rect class="ag" width="2.221" height="38.749" transform="translate(39.49)"/><rect class="ag" width="2.221" height="38.749" transform="translate(49.362)"/><rect class="ag" width="2.221" height="38.749" transform="translate(59.234)"/><rect class="ag" width="2.221" height="38.749" transform="translate(69.107)"/><rect class="ag" width="2.221" height="38.749" transform="translate(78.979)"/></g><path class="ah" d="M120.047,301.169a9.317,9.317,0,1,1-9.316-9.316A9.318,9.318,0,0,1,120.047,301.169Z" transform="translate(-43.681 -272.419)"/><path class="ag" d="M114.332,299.4a5.37,5.37,0,1,1-5.369-5.369A5.37,5.37,0,0,1,114.332,299.4Z" transform="translate(-41.914 -270.651)"/><path class="ai" d="M107.665,312.145h0a2.469,2.469,0,0,1-2.47-2.468V283.588a2.469,2.469,0,0,1,2.47-2.468h0a2.469,2.469,0,0,1,2.468,2.468v26.089A2.469,2.469,0,0,1,107.665,312.145Z" transform="translate(-40.615 -281.12)"/><g transform="translate(0 28.819)"><path class="af" d="M84.279,369.761,72.925,316.7H195.836L184.73,369.761Z" transform="translate(-66.777 -281.096)"/><rect class="ag" width="135.208" height="14.068" transform="translate(0 21.533)"/><rect class="ah" width="135.208" height="9.493" transform="translate(0 21.533)"/><g transform="translate(27.004 44.733)"><rect class="ag" width="2.221" height="38.749"/><rect class="ag" width="2.221" height="38.749" transform="translate(9.872)"/><rect class="ag" width="2.221" height="38.749" transform="translate(19.745)"/><rect class="ag" width="2.221" height="38.749" transform="translate(29.617)"/><rect class="ag" width="2.221" height="38.749" transform="translate(39.49)"/><rect class="ag" width="2.221" height="38.749" transform="translate(49.362)"/><rect class="ag" width="2.221" height="38.749" transform="translate(59.234)"/><rect class="ag" width="2.221" height="38.749" transform="translate(69.107)"/><rect class="ag" width="2.221" height="38.749" transform="translate(78.979)"/></g><path class="ah" d="M120.047,317.087a9.317,9.317,0,1,1-9.316-9.318A9.316,9.316,0,0,1,120.047,317.087Z" transform="translate(-43.681 -288.335)"/><circle class="ag" cx="5.37" cy="5.37" r="5.37" transform="translate(61.678 23.382)"/><path class="ai" d="M107.665,328.061h0a2.469,2.469,0,0,1-2.47-2.468V299.5a2.47,2.47,0,0,1,2.47-2.468h0a2.47,2.47,0,0,1,2.468,2.468v26.089A2.469,2.469,0,0,1,107.665,328.061Z" transform="translate(-40.615 -297.036)"/></g><g transform="translate(0 57.64)"><path class="af" d="M84.279,385.678,72.925,332.614H195.836L184.73,385.678Z" transform="translate(-66.777 -297.014)"/><rect class="ag" width="135.208" height="14.068" transform="translate(0 21.532)"/><rect class="ah" width="135.208" height="9.493" transform="translate(0 21.532)"/><g transform="translate(27.004 44.732)"><rect class="ag" width="2.221" height="38.749"/><rect class="ag" width="2.221" height="38.749" transform="translate(9.872)"/><rect class="ag" width="2.221" height="38.749" transform="translate(19.745)"/><rect class="ag" width="2.221" height="38.749" transform="translate(29.617)"/><rect class="ag" width="2.221" height="38.749" transform="translate(39.49)"/><rect class="ag" width="2.221" height="38.749" transform="translate(49.362)"/><rect class="ag" width="2.221" height="38.749" transform="translate(59.234)"/><rect class="ag" width="2.221" height="38.749" transform="translate(69.107)"/><rect class="ag" width="2.221" height="38.749" transform="translate(78.979)"/></g><path class="ah" d="M120.047,333a9.317,9.317,0,1,1-9.316-9.316A9.318,9.318,0,0,1,120.047,333Z" transform="translate(-43.681 -304.252)"/><circle class="ag" cx="5.37" cy="5.37" r="5.37" transform="translate(61.678 23.38)"/><path class="ai" d="M107.665,343.978h0a2.47,2.47,0,0,1-2.47-2.468V315.421a2.469,2.469,0,0,1,2.47-2.468h0a2.469,2.469,0,0,1,2.468,2.468V341.51A2.47,2.47,0,0,1,107.665,343.978Z" transform="translate(-40.615 -312.953)"/></g></g></g></g><rect class="aj" width="17.754" height="28.543" transform="translate(428.88 273.014) rotate(18.657)"/><rect class="ak" width="4.188" height="28.543" transform="translate(435.307 275.183) rotate(18.659)"/><g transform="translate(345.065 165.501)"><g transform="translate(0 185.512)"><g transform="translate(5.431 26.413)"><g transform="translate(33.553 3.207)"><path class="al" d="M235.44,270.464h-2.661V263.5h17.6v6.965h-2.661l1.057,3.086-15.146,2.208Z" transform="translate(-223.975 -263.499)"/><path class="al" d="M263.126,297.9v48.714H227.917V297.9l1.444-4.228,1.378-4.02,1.057-3.1,4.407-12.91,17.751-2.586,4.718,13.816.217.623,1.236,3.633Z" transform="translate(-227.917 -257.372)"/><rect class="am" width="35.205" height="25.483" transform="translate(0.004 47.896)"/><rect class="am" width="17.603" height="6.959" transform="translate(8.805 0.001)"/></g><path class="an" d="M254.735,343.167c0,1.152-.027,2.274-.074,3.37-.02.641-.058,1.264-.094,1.887-.123,2.03-.311,3.946-.576,5.758q-.1.75-.226,1.472a45.829,45.829,0,0,1-1.548,6.586c-.208.67-.435,1.322-.67,1.936v.009a25.133,25.133,0,0,1-1.463,3.152,16.669,16.669,0,0,1-1.887,2.792,10.819,10.819,0,0,1-2.861,2.464,8,8,0,0,1-3.453,1.085A9.488,9.488,0,0,1,239,373.46c-3.406-.773-6.624-3.359-9.691-7.408v-.009c-.123-.152-.226-.293-.34-.444-.009-.011-.009-.02-.018-.029-4.161-5.691-8.041-14.089-11.73-24.262V341.3c-.34-.954-.69-1.918-1.028-2.9-.86-2.483-1.718-5.059-2.559-7.712a93.124,93.124,0,0,1-3.614-18.486c-.076-.793-.15-1.586-.208-2.379a127.838,127.838,0,0,1-.13-19.184l12.079,7.813a25.358,25.358,0,0,0,6.605-.226l-17.28-11.183,11.08-1.613a14.15,14.15,0,0,1-6.229-2.906l-5.53.8c1.622-12.032,5.1-20.988,9.776-21.508,8.427-.934,15.317,5.228,20.941,17.044l-8.568,1.244a13.467,13.467,0,0,1-5,4.539l15.156-2.207a119.282,119.282,0,0,1,4.1,11.674c.273.923.547,1.869.811,2.83.188.679.377,1.36.567,2.057q.212.793.424,1.615.75,2.928,1.463,6.059c.453,1.99.9,4.047,1.331,6.153.094.5.2.99.292,1.49.228,1.143.435,2.265.643,3.379.206,1.208.415,2.406.594,3.576v.009c.1.623.2,1.246.283,1.851.105.7.2,1.378.284,2.057q.282,2.081.491,4.078.185,1.654.311,3.256c.17,1.99.282,3.926.349,5.793C254.726,339.978,254.755,341.6,254.735,343.167Z" transform="translate(-209.386 -261.728)"/><path class="ao" d="M230.824,271.212a12.076,12.076,0,0,1-.726,1.208,13.467,13.467,0,0,1-5,4.539,8.95,8.95,0,0,1-5.389.784,14.15,14.15,0,0,1-6.229-2.906c-.34-.264-.7-.538-1.057-.849a23.209,23.209,0,0,0,3.54.491,26.529,26.529,0,0,0,11.71-1.709A22,22,0,0,0,230.824,271.212Z" transform="translate(-206.925 -254.039)"/><path class="ap" d="M235.587,279.525a18.861,18.861,0,0,1-4.351,4.954,13.055,13.055,0,0,1-5.1,2.568,10,10,0,0,1-1.2.226,8.769,8.769,0,0,1-1.123.076c-3.038.085-6.606-1.076-10.636-4.474a23.347,23.347,0,0,0,5.5,1.152,25.356,25.356,0,0,0,6.605-.226A24.107,24.107,0,0,0,235.587,279.525Z" transform="translate(-206.308 -247.299)"/><path class="aq" d="M214.617,293.066s13.785,4.109,24.086-3.549C238.7,289.517,229.968,305.5,214.617,293.066Z" transform="translate(-205.146 -239.199)"/><path class="ar" d="M217.075,302.844s14.431,5.834,22.721-3.991C239.8,298.853,233.348,316.354,217.075,302.844Z" transform="translate(-203.153 -231.63)"/><path class="as" d="M221.268,312.729s9.294,4.174,15.128-3.194C236.4,309.535,231.776,322.371,221.268,312.729Z" transform="translate(-199.754 -222.97)"/><g transform="translate(87.454 32.836)"><g transform="translate(36.023)"><rect class="at" width="17.5" height="52.943" transform="translate(0.001 26.195)"/><path class="au" d="M315.183,294.329v14.86c-10.857-.652-12.945,23.9-25.692,15.534-.76-.5-1.51-1.03-2.247-1.572V294.329Z" transform="translate(-269.744 -268.134)"/><path class="av" d="M277.579,299.958l8.75-12.567,8.75,12.567Z" transform="translate(-277.579 -273.759)"/><path class="aw" d="M319.1,299.958l-8.29-12.567h-28.4l8.75,12.567Z" transform="translate(-273.661 -273.759)"/><rect class="ax" width="28.706" height="13.632" transform="translate(8.751)"/><path class="x" d="M315.183,302.542v38.083H287.244V316.5c.737.541,1.487,1.068,2.247,1.572C302.238,326.44,304.326,301.89,315.183,302.542Z" transform="translate(-269.744 -261.486)"/><path class="ay" d="M295.079,312.94v24.12h-17.5V308.79C284.53,304.294,289.455,308.826,295.079,312.94Z" transform="translate(-277.579 -257.922)"/></g><rect class="at" width="17.5" height="52.943" transform="translate(0 26.195)"/><path class="au" d="M295.288,294.329v14.86c-10.855-.652-12.943,23.9-25.69,15.534-.762-.5-1.512-1.03-2.249-1.572V294.329Z" transform="translate(-249.85 -268.134)"/><path class="av" d="M257.685,299.958l8.75-12.567,8.75,12.567Z" transform="translate(-257.685 -273.759)"/><path class="aw" d="M299.206,299.958l-8.29-12.567h-28.4l8.75,12.567Z" transform="translate(-253.767 -273.759)"/><rect class="ax" width="28.706" height="13.632" transform="translate(8.75)"/><path class="x" d="M295.288,302.542v38.083H267.349V316.5c.737.541,1.487,1.068,2.249,1.572C282.345,326.44,284.433,301.89,295.288,302.542Z" transform="translate(-249.85 -261.486)"/><path class="ay" d="M275.184,312.94v24.12h-17.5V308.79C264.635,304.294,269.56,308.826,275.184,312.94Z" transform="translate(-257.684 -257.922)"/></g><g transform="translate(28.942 23.921)"><g transform="translate(6.394 29.843)"><circle class="az" cx="20.468" cy="20.468" r="20.468" transform="translate(0 10.444)"/><path class="ba" d="M239.094,309.707c-2.339,3.736-5.7,5.845-7.513,4.712s-1.382-5.079.958-8.815,5.7-5.845,7.513-4.711S241.434,305.971,239.094,309.707Z" transform="translate(-227.637 -283.989)"/><path class="bb" d="M240.836,302.757s-.44-7.522-4.065-11.337" transform="translate(-222.521 -291.42)"/><path class="bc" d="M245.935,295.706l-16.079-1.4S236.523,303.61,245.935,295.706Z" transform="translate(-228.127 -289.081)"/><path class="aj" d="M245.935,297.13l-16.079-1.4S238.033,287.716,245.935,297.13Z" transform="translate(-228.127 -290.505)"/></g><g transform="translate(0 65.838)"><path class="ad" d="M232.964,314.221c9.825-2.253,15.76,0,19.445,5.115s.612,17.234-12.076,12.514C229.75,327.912,232.964,314.221,232.964,314.221Z" transform="translate(-219.585 -309.637)"/><path class="bd" d="M237.068,316.836s-4.143-4.827-8.528-5.537" transform="translate(-222.8 -311.299)"/><path class="bc" d="M236.888,312.752l-11.518,7.281S234.606,322.874,236.888,312.752Z" transform="translate(-225.37 -310.121)"/><path class="aj" d="M236.888,312.91,225.37,320.19S226.766,310.628,236.888,312.91Z" transform="translate(-225.37 -310.279)"/></g><g transform="translate(22.218)"><path class="bc" d="M254.087,311.116c3.451.755,6.113-5.633,6.113-5.633s5.861-.54,5-6.428c0,0,5.387-.44,5.135-5.345,0,0,3.962-2.662,2.725-6.959a7.568,7.568,0,0,0-1.8-8.3s-1.822-5.512-6.959-2.725c0,0-5.448-1.425-6.9,4.255,0,0-4.905.25-4.78,6.539,0,0-3.719,3.612-.969,9.908,0,0-3.439,5.318-.911,8.2C250.746,304.622,248.617,309.921,254.087,311.116Z" transform="translate(-227.767 -274.939)"/><path class="be" d="M250.723,318.4s1.593-22.992,10.754-35.293" transform="translate(-227.034 -268.319)"/><path class="aj" d="M256.3,311.544c-3.116.2-4.6-5.729-4.6-5.729s-5.052-1.242-3.525-6.28c0,0-4.652-1.094-3.788-5.347,0,0-3.113-2.85-1.467-6.442a6.7,6.7,0,0,1,2.669-7.02s2.32-4.579,6.443-1.467c0,0,4.951-.529,5.468,4.626,0,0,4.255.866,3.317,6.347,0,0,2.778,3.649-.456,8.789,0,0,2.307,5.1-.282,7.285C260.074,306.306,261.239,311.22,256.3,311.544Z" transform="translate(-233.752 -272.314)"/><path class="bf" d="M252.481,317.954s1.633-20.311-4.755-32.271" transform="translate(-229.463 -266.227)"/><path class="y" d="M254.26,310.663c2.85,1.282,6.314-3.761,6.314-3.761s5.17.6,5.5-4.652c0,0,4.74.6,5.416-3.69,0,0,3.913-1.581,3.625-5.525a6.693,6.693,0,0,0-.049-7.509s-.574-5.1-5.524-3.623c0,0-4.454-2.225-6.741,2.424,0,0-4.288-.674-5.323,4.789,0,0-3.877,2.448-2.642,8.394,0,0-3.942,3.976-2.28,6.926C252.552,304.438,249.745,308.633,254.26,310.663Z" transform="translate(-226.25 -269.724)"/><path class="bf" d="M250.455,316.72s5.564-19.6,15.726-28.578" transform="translate(-227.251 -264.234)"/><path class="bg" d="M258.856,302.686c12.979.961,25.77,6.213,22.319,20.477s-23.7,18.408-23.7,18.408-20.74-9.434-19.8-21.629S246.431,301.766,258.856,302.686Z" transform="translate(-237.64 -252.518)"/><path class="ba" d="M245.868,311.635c-1.65,2.635-3.975,4.152-5.191,3.391s-.866-3.516.784-6.151,3.975-4.152,5.191-3.39S247.518,309,245.868,311.635Z" transform="translate(-235.765 -250.333)"/></g></g></g><g transform="translate(0 7.544)"><g transform="translate(29.522 177.366)"><path class="bh" d="M226.539,350l9.122,18.8,6.449-.786V350Z" transform="translate(-219.571 -348.663)"/><path class="bh" d="M284.551,350l9.122,18.8,6.449-.786V350Z" transform="translate(-172.54 -348.663)"/><circle class="bi" cx="14.234" cy="14.234" r="14.234" transform="translate(0 20.13) rotate(-45)"/><path class="k" d="M242.679,363.121a6.127,6.127,0,1,1-6.127-6.127A6.129,6.129,0,0,1,242.679,363.121Z" transform="translate(-216.422 -342.992)"/><path class="bj" d="M238.76,361.909a3.42,3.42,0,1,1-3.42-3.419A3.42,3.42,0,0,1,238.76,361.909Z" transform="translate(-215.21 -341.779)"/><circle class="bi" cx="14.234" cy="14.234" r="14.234" transform="matrix(0.24, -0.971, 0.971, 0.24, 107.94, 30.536)"/><path class="k" d="M300.691,363.121a6.127,6.127,0,1,1-6.127-6.127A6.129,6.129,0,0,1,300.691,363.121Z" transform="translate(-169.391 -342.992)"/><path class="bj" d="M296.772,361.909a3.42,3.42,0,1,1-3.42-3.419A3.42,3.42,0,0,1,296.772,361.909Z" transform="translate(-168.179 -341.779)"/><path class="bh" d="M238.7,357.555l9.122,18.8,6.448-.786V357.555Z" transform="translate(-209.712 -342.537)"/><circle class="bi" cx="14.234" cy="14.234" r="14.234" transform="translate(25.018 44.383) rotate(-76.672)"/><path class="k" d="M254.84,370.678a6.127,6.127,0,1,1-6.127-6.127A6.127,6.127,0,0,1,254.84,370.678Z" transform="translate(-206.563 -336.865)"/><path class="bj" d="M250.921,369.466a3.42,3.42,0,1,1-3.42-3.419A3.42,3.42,0,0,1,250.921,369.466Z" transform="translate(-205.351 -335.653)"/><path class="bh" d="M296.712,357.555l9.123,18.8,6.449-.786V357.555Z" transform="translate(-162.682 -342.537)"/><circle class="bi" cx="14.234" cy="14.234" r="14.234" transform="translate(130.06 44.383) rotate(-76.672)"/><path class="k" d="M312.852,370.678a6.127,6.127,0,1,1-6.127-6.127A6.127,6.127,0,0,1,312.852,370.678Z" transform="translate(-159.532 -336.865)"/><path class="bj" d="M308.931,369.466a3.42,3.42,0,1,1-3.419-3.419A3.418,3.418,0,0,1,308.931,369.466Z" transform="translate(-158.32 -335.653)"/></g><g transform="translate(0 16.779)"><path class="bk" d="M239.287,282.858l-1.869.273-11.447,1.689a13.055,13.055,0,0,1-5.1,2.568,10,10,0,0,1-1.2.226v.8l.858.558a1.926,1.926,0,0,0,1.028.3,2.6,2.6,0,0,0,.273-.018l1.615-.235,12.588-1.869,3.813-.567.424-.056,1.463-.217,19.76-2.926c.047-.15.094-.292.152-.444.047-.123.1-.255.159-.377a5.217,5.217,0,0,1,.549-.954c.094-.141.2-.273.311-.415a.322.322,0,0,0,.047-.056.579.579,0,0,1,.074-.076c.085-.1.19-.208.284-.3.141-.141.292-.273.453-.406s.33-.264.509-.386a.325.325,0,0,1,.038-.067,354.079,354.079,0,0,1,.094-.17c.029-.047.067-.1.105-.159a3.766,3.766,0,0,1,.339-.473Z" transform="translate(-195.613 -245.552)"/><path class="ap" d="M227.2,272.228l-11.71,1.709-2.482.359a14.15,14.15,0,0,0,6.229,2.906l5.389-.784a13.468,13.468,0,0,0,5-4.539Z" transform="translate(-201.021 -251.409)"/><path class="bk" d="M399.214,275.156a1.416,1.416,0,0,0-.284-.168l-22-10.325-3.926-1.851H373l-4.387-2.057a1.83,1.83,0,0,0-1.076-.159L262.2,275.92l1.237,3.634,104.08-15.147,24.149,11.335-93.378,13.816h-.009l-13.618,2.019h-.009l-11.683,1.736-4.6.679-.945.132h-.009l-25.328,3.755-1.869.273-11.447,1.689-3.982.6-1.963-1.275a25.358,25.358,0,0,1-6.605.226l5.133,3.323,1.123.726.858.558a1.927,1.927,0,0,0,1.028.3,2.58,2.58,0,0,0,.273-.018l1.615-.235,12.588-1.869,3.813-.567.424-.056,1.463-.217,19.76-2.926,1.851-.273,1.887-.282,1.566-.226,8.7-1.293,1.736-.255,10.049-1.481,1.887-.284,8.476-1.255,14.9-2.207,1.887-.275,24.763-3.67,1.907-.273L368.439,283l1.925-.282,25.489-3.775L398,278.62l.4-.056a1.888,1.888,0,0,0,1.577-1.51.173.173,0,0,0,.009-.056.039.039,0,0,0,.009-.029A1.883,1.883,0,0,0,399.214,275.156Z" transform="translate(-198.414 -260.574)"/><path class="bk" d="M237.014,274.28l1.367-4.011-11.465,1.671c.538,1.132,1.067,2.33,1.586,3.576Z" transform="translate(-189.744 -252.714)"/><path class="bk" d="M219.057,283.88l1.123.726v-.8A8.769,8.769,0,0,1,219.057,283.88Z" transform="translate(-196.115 -241.741)"/><path class="bk" d="M206.434,275.826a1.95,1.95,0,0,0-.047.406v.011a1.859,1.859,0,0,0,.858,1.575l2.917,1.887,1.954,1.266c.168-2.53.415-4.983.726-7.313l-4.842.708A1.878,1.878,0,0,0,206.434,275.826Z" transform="translate(-206.387 -249.967)"/><path class="bk" d="M219.057,283.88l1.123.726v-.8A8.769,8.769,0,0,1,219.057,283.88Z" transform="translate(-196.115 -241.741)"/><path class="al" d="M250.244,272.683l-17.751,2.586,1.368-4.011,15.146-2.208Z" transform="translate(-185.223 -253.703)"/><path class="an" d="M234.578,274.768l-15.156,2.207a13.467,13.467,0,0,0,5-4.539l8.568-1.244C233.529,272.324,234.058,273.522,234.578,274.768Z" transform="translate(-195.819 -251.966)"/><path class="an" d="M217.615,275.165a11.493,11.493,0,0,1-2.611-.773l.148,1.132Z" transform="translate(-199.401 -249.371)"/><path class="bk" d="M211.139,275.867l-1.284-.2q-.176,1.806-.3,3.679l12.079,7.813a25.359,25.359,0,0,0,6.605-.226Z" transform="translate(-203.822 -248.34)"/><path class="an" d="M210.82,277.734l8.617-1.255-.148-1.132a16.825,16.825,0,0,1-3.618-2.133l-5.53.8c-.158,1.181-.3,2.4-.422,3.634l1.284.2Z" transform="translate(-203.686 -250.326)"/></g><g transform="translate(0 32.594)"><path class="bk" d="M373.579,370.825H255.932c-14.312,0-20.939-4.288-30.11-10.221-2.839-1.836-6.057-3.918-9.83-6.069-8.777-5-9.6-10.375-9.6-23.344V279.758h3.775v51.433c0,12.5.757,16.108,7.7,20.064,3.868,2.2,7.131,4.317,10.011,6.18,8.95,5.789,14.864,9.615,28.061,9.615H373.579c10.98,0,16.4-1.052,19.518-24.781,3.114-23.662,11.063-72.47,11.143-72.961l3.725.607c-.08.491-8.018,49.24-11.125,72.845C393.705,366.585,388.019,370.825,373.579,370.825Z" transform="translate(-206.387 -269.308)"/></g><g transform="translate(23.961 58.616)"><path class="bk" d="M230.231,357.011c-10.913-3.9-10.75-12.36-10.564-22.161.027-1.427.056-2.913.056-4.458V283.679H223.5v46.713c0,1.57-.029,3.08-.056,4.53-.2,10.5.056,15.679,8.058,18.534Z" transform="translate(-219.62 -283.679)"/></g><g transform="translate(1.376 64.743)"><path class="bk" d="M231.617,304.212a.929.929,0,0,1-.511-.15l-23.959-15.413,1.021-1.586,23.695,15.243,167.773-11.569.129,1.883L231.68,304.21Z" transform="translate(-207.147 -287.063)"/></g><g transform="translate(1.376 89.209)"><path class="bk" d="M231.617,317.726a.945.945,0,0,1-.511-.15l-23.959-15.415,1.021-1.586,23.711,15.255,163.2-5.208.062,1.887-163.5,5.217Z" transform="translate(-207.147 -300.575)"/></g><g transform="translate(44.24 55.769)"><rect class="bk" width="1.888" height="76.455"/></g><g transform="translate(67.738 52.291)"><rect class="bk" width="1.887" height="79.933"/></g><g transform="translate(91.679 48.748)"><rect class="bk" width="1.887" height="83.476"/></g><g transform="translate(116.942 45.009)"><rect class="bk" width="1.887" height="87.215"/></g><g transform="translate(139.198 41.002)"><rect class="bk" width="91.287" height="1.888" transform="matrix(0.049, -0.999, 0.999, 0.049, 0, 91.176)"/></g><g transform="translate(161.225 37.033)"><rect class="bk" width="95.528" height="1.887" transform="translate(0 95.103) rotate(-84.592)"/></g><g transform="translate(20.762 130.335)"><path class="bk" d="M361.133,373.541H219.74a1.888,1.888,0,0,1,0-3.775H361.133a6.949,6.949,0,0,0,6.118-10.243l-18-33.451a1.888,1.888,0,0,1,3.324-1.789l18,33.453a10.724,10.724,0,0,1-9.443,15.806Z" transform="translate(-217.853 -323.288)"/></g><g transform="translate(19.975 130.335)"><path class="bk" d="M382.254,387.225H243.686a1.871,1.871,0,0,1-.923-.243L218.383,373.3a1.887,1.887,0,0,1,1.847-3.292l23.948,13.443H382.254a7.195,7.195,0,0,0,6.4-10.493l-24.2-46.915a1.887,1.887,0,1,1,3.353-1.729L392,371.225a10.971,10.971,0,0,1-9.751,16Z" transform="translate(-217.418 -323.287)"/></g><g transform="translate(173.698)"><path class="bk" d="M304.476,274.048l-2.161-3.095,27.9-19.646,2.161,3.094Z" transform="translate(-302.315 -251.307)"/></g><g transform="translate(198.365 8.231)"><path class="bk" d="M353.865,258.949,318.75,283.325l-.661.453-.925-1.331-1.226-1.774.435-.3,2-1.389,22.619-15.693A5.615,5.615,0,0,0,343.6,264a4.348,4.348,0,0,0,4.246-3.538,10.638,10.638,0,0,1-1.925-.585l5.794-4.022Z" transform="translate(-315.938 -255.853)"/></g></g><g transform="translate(192.868)"><path class="bl" d="M360.167,260.353l-43.41-13.212-1.528,10.28L357.1,269.79Z" transform="translate(-311.016 -247.141)"/><path class="bl" d="M323.183,252.282a5.141,5.141,0,1,1-5.141-5.141A5.14,5.14,0,0,1,323.183,252.282Z" transform="translate(-312.902 -247.141)"/><circle class="bm" cx="4.996" cy="4.996" r="4.996" transform="translate(41.793 12.656)"/></g></g><g transform="translate(196.175)"><g transform="translate(33.224 163.349)"><path class="bn" d="M376.883,364.234l13.213,9.673s1.651,12.5-1.416,13.921-17.93-1.416-18.875-4.248-3.774-5.189-8.257-4.954c-4.185.221-28.519-8.2-28.472-23.519a2.345,2.345,0,0,1,3.267-2.124c5.534,2.348,17.812,7.21,25.466,7.63C371.929,361.167,376.883,364.234,376.883,364.234Z" transform="translate(-333.077 -139.324)"/><path class="bn" d="M431.525,361.934l12.74-6.6s8.965,5.036,9.673,7-7.786,7.839-9.673,9.738-4.956-.257-8.021,4.123-7.313,10.752-14.392,12.4c-5.313,1.24-18.332.619-24.5.232a3.568,3.568,0,0,1-3.343-3.562h0a3.57,3.57,0,0,1,3.511-3.569l10.881-.179,12.047-13.081Z" transform="translate(-283.675 -137.265)"/><path class="f" d="M367.212,353.379c-1.887,4.719-9.437,7.786-15.807,6.843s-4.509,5.577,4.248,9.2c13.684,5.662,22.648,4.011,22.648,4.011s.235-9.908,1.651-14.862Z" transform="translate(-321.282 -138.85)"/><path class="f" d="M414.24,354.866c.708,5.9-2.832,16.257-6.37,20.278s.891,5.91,6.461,1.9,15.717-10.381,19.728-18.638c0,0-3.974-2.772-5.427-5.9S414.24,354.866,414.24,354.866Z" transform="translate(-273.468 -140.337)"/><path class="bo" d="M468.627,447.071l-15.1,6.607s-13.41-35.579-26.894-60.869c-8.985-16.845-15.288-25.565-19.442-30.076v-.009A25.547,25.547,0,0,0,403.1,359a14.4,14.4,0,0,1-4.547-5.15l-2.591-4.92-3.3,11.8s3.3,15.1,0,29.726-12.975,44.826-16.751,69.361l-18.638-8.492s11.324-37.116,13.213-94.371l7.078-56.15a76.683,76.683,0,0,1-5.153-8.624c-.831-1.577-1.707-3.35-2.595-5.295-5.483-12.041-11.344-30.822-8.145-51.978l53.8,2.2c12.894,19.188,4.4,44.353,0,58.51l4.237,21.743,4.8,24.6a10.043,10.043,0,0,0,3.323,5.724c6.03,5.15,20.765,20.124,25.232,46.546C458.719,427.725,468.627,447.071,468.627,447.071Z" transform="translate(-313.463 -234.901)"/><path class="bp" d="M375.5,247.842l-4.717,42.465a76.685,76.685,0,0,1-5.153-8.624C372.047,277.643,372.811,261.553,375.5,247.842Z" transform="translate(-306.686 -224.41)"/><path class="bp" d="M402.382,290.171c-12.268,21.638-12.514,44.815-12.514,45.373a21.244,21.244,0,0,0-4.969-4.277,6.452,6.452,0,0,1-2.617-2.6l-3.645-6.924,19.507-53.318Z" transform="translate(-296.14 -207.72)"/></g><path class="bq" d="M357.6,152.787c2.473-4.393,7.857-7.007,11.735-6.046,0,0,11.867-4.09,22.35-.724S415.653,163.483,409,180.636c-8.53,21.989-1.257,40.1,8.232,38.74,0,0-6.528,1.986-10.259-2.778,0,0,5.124,19.212-5.807,29.524s-25.031-.967-25.031-.967l-1.474-13.111c-2.394.731-4.483.659-6-.628-8.155-6.924-4.849-18.607-.349-25.641a21.571,21.571,0,0,0,2.645-6.707l-2.863-25.495-8.576-7.223s-3.167-5.5-.826-10.109c0,0-2.785,2.062-2.75,4.983C355.937,161.223,354.735,157.87,357.6,152.787Z" transform="translate(-281.524 -144.688)"/><g transform="translate(0 63.626)"><path class="f" d="M330.892,304.065s-4.719-.945-6.37,2.122-1.416,7.315,3.185,7.315c0,0,.118,3.774-2.714,3.3-2-.335-6.479-3.4-8.93-5.173a3.208,3.208,0,0,1-1.266-3.256l1.481-7.074a3.11,3.11,0,0,1,2.682-2.453l16.215-1.907a4.245,4.245,0,0,0,2.693-1.412c3.824-4.349,16.787-19.246,22.121-27.246,6.292-9.437,11.954-21.077,19.818-40.58s11.77-43.787,20.447-45.3c3.145-.549,4.309-.914,5.17-.6,6.021,2.229,4.268,12.235,4.268,12.235l-15.1,46.805s-20.992,45.079-46.865,59.833L337.34,306.03Z" transform="translate(-314.729 -178.315)"/><path class="o" d="M418.458,281.754c-19.222,6.309-32.506,5.925-41.065,3.866a35.844,35.844,0,0,1-6.383-2.1,21.056,21.056,0,0,1-6.352-3.969c1.467-9.789,1.7-32.194-5.582-39.318-10.071-9.861-4.235-19.827,1.184-28.549,5.419-8.739,12.823-28.477,12.823-28.477l24.613-3.377,18.866,33.659a94.97,94.97,0,0,0-5.745,16.7,78.9,78.9,0,0,0-2.43,20.955C409.025,270.544,418.458,281.754,418.458,281.754Z" transform="translate(-283.23 -179.827)"/><path class="f" d="M445.01,197.74c-.147,4.65-4.842,15.194-10.469,26.21-3.229,6.294-6.752,12.737-9.935,18.3-8.739,15.342-15.579,24.064-25.96,32.089-1.747,1.347-4.25,3.243-7.212,5.45-14.6,10.87-40.205,29.469-40.205,29.469s-.947-1.186-5.671-3.065c-4.71-1.9-9.671-1.421-10.381,3.538-.445,3.171,2.088,4.8,3.984,5.553l-4.932,3.406c-2.932-1.376-6.678-4.487-8.78-6.337a3.386,3.386,0,0,1-1.007-3.569,38.808,38.808,0,0,1,6.218-11.092,3.172,3.172,0,0,1,2.459-1.17h14.765a4.717,4.717,0,0,0,3.3-1.362c6.366-6.294,33.259-32.89,44.869-45.123a45.023,45.023,0,0,0,5.228-6.9c3.88-6.129,7.449-13.89,10.75-21.591.045-.089.089-.192.134-.3,5.642-13.224,10.544-26.2,15.031-30.433C435.445,183.05,445.248,190.425,445.01,197.74Z" transform="translate(-306.985 -173.601)"/><path class="br" d="M403.014,207.647s-9.188,29.136-19.7,42.383c-4.1,5.168-9.789,9.537-13.729,13.046a35.844,35.844,0,0,1-6.383-2.1c1.526-1.141,2.845-2.148,3.88-2.948,10.381-8.025,17.222-16.747,25.96-32.089,3.183-5.568,6.707-12.01,9.935-18.3Z" transform="translate(-275.427 -157.284)"/></g><g transform="translate(74.155 8.007)"><path class="f" d="M398.69,209.245c-.014.04-5.238-.391-5.865,1.15-4.252,10.446-14,19.7-18.875,10.631,0,0,2.962-8.949,2.454-16.376-.348-4.891-1.269-8.952-3.381-8.952h-.013a59.4,59.4,0,0,1-6.814-.387c-3.194-.373-5.666-3.5-6.814-10.22-.7-2.913-3.7-5.01-3.7-6.774a1.637,1.637,0,0,1,.6-1.229c2.325-2.151,3.073-3.353,3.448-5.465.574-3.207-.762-7,.534-11.022,2.511-7.871,11.049-11.491,11.049-11.491-1.617,3.448-3.326,10.728,1.108,19.038a12.836,12.836,0,0,0,7.951,6.173,20.623,20.623,0,0,0,4.742.8,23.511,23.511,0,0,0,2.511-.027,4.99,4.99,0,0,0,.641-.053,4.386,4.386,0,0,1,.856-.7l.013-.013.708-.36.054-.014.025-.027a5.428,5.428,0,0,1,2.62-.306c2.778.373,4.355,3.741,3.192,7.668a4.741,4.741,0,0,1-2.939,3.326c-.121.04-.214.067-.308.094a4.783,4.783,0,0,1-1.59.214C388.99,193.988,398.69,209.245,398.69,209.245Z" transform="translate(-355.682 -149.11)"/><path class="bq" d="M375.8,179.781s-4.885,22.636,3.06,32.567,22.989,11.837,29.8,5.635c0,0-29.6-9.642-22.279-34.3,5.541-18.656,6.607-20.566,4.42-26.893s-7.2,11.851-7.2,11.851l-3.6,12.329Z" transform="translate(-340.58 -143.965)"/><path class="n" d="M376.869,171.718c-.44.415-7.482,7.335-8.23,14.6-.348-4.891-1.269-8.952-3.381-8.952A39.358,39.358,0,0,0,376.869,171.718Z" transform="translate(-347.918 -130.781)"/></g></g></g></g></svg>